<?xml version="1.0" standalone="no"?>
<!DOCTYPE svg PUBLIC "-//W3C//DTD SVG 20010904//EN"
 "http://www.w3.org/TR/2001/REC-SVG-20010904/DTD/svg10.dtd">
<svg version="1.0" xmlns="http://www.w3.org/2000/svg"
 width="70.000000pt" height="70.000000pt" viewBox="0 0 70.000000 70.000000"
 preserveAspectRatio="xMidYMid meet">
<metadata>
Created by potrace 1.11, written by Peter Selinger 2001-2013
</metadata>
<g transform="translate(0.000000,70.000000) scale(0.100000,-0.100000)"
fill="#000000" stroke="none">
<path d="M40 360 l0 -230 65 0 65 0 0 95 0 95 80 0 80 0 0 -95 0 -95 65 0 65
0 0 230 0 230 -65 0 -65 0 0 -85 0 -85 -80 0 -80 0 0 85 0 85 -65 0 -65 0 0
-230z"/>
<path d="M552 260 c-45 -19 -51 -96 -9 -125 49 -35 127 2 127 60 0 14 -11 37
-25 50 -25 26 -54 30 -93 15z"/>
</g>
</svg>
